<svg width="13" height="9" viewBox="0 0 13 9" fill="none" xmlns="http://www.w3.org/2000/svg">
<path d="M4.4707 7.55859L6.62695 2.66016H7.66992L4.8457 9H4.0957L1.2832 2.66016H2.32617L4.4707 7.55859ZM2.00977 2.66016V9H0.925781V2.66016H2.00977ZM6.89648 9V2.66016H7.98633V9H6.89648ZM10.4648 2.40234H10.957C11.1484 2.40234 11.3066 2.375 11.4316 2.32031C11.5566 2.26562 11.6504 2.19141 11.7129 2.09766C11.7793 2 11.8125 1.88867 11.8125 1.76367C11.8125 1.5918 11.75 1.44727 11.625 1.33008C11.5 1.21289 11.3027 1.1543 11.0332 1.1543C10.8105 1.1543 10.625 1.20312 10.4766 1.30078C10.332 1.39844 10.2598 1.53125 10.2598 1.69922H9.33984C9.33984 1.43359 9.41406 1.20508 9.5625 1.01367C9.71094 0.818359 9.91211 0.667969 10.166 0.5625C10.4199 0.457031 10.7031 0.404297 11.0156 0.404297C11.3555 0.404297 11.6543 0.455078 11.9121 0.556641C12.1699 0.654297 12.3711 0.800781 12.5156 0.996094C12.6602 1.19141 12.7324 1.43164 12.7324 1.7168C12.7324 1.92383 12.668 2.11523 12.5391 2.29102C12.4141 2.46289 12.2305 2.60156 11.9883 2.70703C11.75 2.80859 11.459 2.85938 11.1152 2.85938H10.4648V2.40234ZM10.4648 3.07617V2.61914H11.1152C11.5059 2.61914 11.8262 2.66602 12.0762 2.75977C12.3262 2.85352 12.5117 2.98828 12.6328 3.16406C12.7539 3.33984 12.8145 3.55273 12.8145 3.80273C12.8145 4.08789 12.7363 4.33203 12.5801 4.53516C12.4238 4.73828 12.209 4.89258 11.9355 4.99805C11.666 5.10352 11.3613 5.15625 11.0215 5.15625C10.7285 5.15625 10.4473 5.10938 10.1777 5.01562C9.91211 4.91797 9.69531 4.76758 9.52734 4.56445C9.35938 4.36133 9.27539 4.10156 9.27539 3.78516H10.1953C10.1953 3.96094 10.2734 4.10938 10.4297 4.23047C10.5859 4.34766 10.793 4.40625 11.0508 4.40625C11.3242 4.40625 11.5312 4.3457 11.6719 4.22461C11.8164 4.10352 11.8887 3.94727 11.8887 3.75586C11.8887 3.5918 11.8496 3.46094 11.7715 3.36328C11.6973 3.26172 11.5898 3.18945 11.4492 3.14648C11.3125 3.09961 11.1484 3.07617 10.957 3.07617H10.4648Z" fill="#121212"/>
</svg>
